<svg xmlns="http://www.w3.org/2000/svg" viewBox="0 0 680 500" role="img">
<defs><linearGradient id="bg2" x1="0" x2="1"><stop stop-color="#f7f8f4"/><stop offset="1" stop-color="#eaf5ef"/></linearGradient><filter id="sh"><feDropShadow dx="0" dy="18" stdDeviation="18" flood-opacity=".16"/></filter></defs>
<rect x="25" y="25" width="630" height="450" rx="34" fill="url(#bg2)"/>
<g filter="url(#sh)"><rect x="80" y="75" width="520" height="335" rx="22" fill="white"/><rect x="80" y="75" width="520" height="42" rx="22" fill="#102a23"/><circle cx="105" cy="96" r="5" fill="#ff8f7b"/><circle cx="122" cy="96" r="5" fill="#ffd36e"/><circle cx="139" cy="96" r="5" fill="#66e3a7"/><text x="170" y="101" font-family="Arial" font-size="9" fill="#b9cbc4">yourbusiness.upliva.ai</text>
<rect x="110" y="145" width="460" height="100" rx="18" fill="#eef8f3"/><text x="135" y="176" font-family="Arial" font-size="10" fill="#2d6a57">WELCOME TO YOUR BUSINESS</text><text x="135" y="209" font-family="Arial" font-size="25" font-weight="700" fill="#10251f">Your digital front door.</text><rect x="135" y="222" width="125" height="7" rx="3" fill="#20c98c"/>
<rect x="110" y="270" width="135" height="105" rx="15" fill="#f9faf8" stroke="#e4ebe6"/><rect x="260" y="270" width="135" height="105" rx="15" fill="#f9faf8" stroke="#e4ebe6"/><rect x="410" y="270" width="160" height="105" rx="15" fill="#f9faf8" stroke="#e4ebe6"/><circle cx="178" cy="305" r="18" fill="#dff8ed"/><circle cx="328" cy="305" r="18" fill="#dff8ed"/><circle cx="450" cy="305" r="18" fill="#dff8ed"/><text x="125" y="346" font-family="Arial" font-size="10" font-weight="700" fill="#17241f">Products</text><text x="275" y="346" font-family="Arial" font-size="10" font-weight="700" fill="#17241f">Hot deals</text><text x="425" y="346" font-family="Arial" font-size="10" font-weight="700" fill="#17241f">WhatsApp enquiry</text></g>
<path d="M525 400c0 0 40 22 65 0" fill="none" stroke="#16c887" stroke-width="3"/><text x="250" y="445" font-family="Arial" font-size="12" fill="#4d625a">Admin approved • Business configured • Public when published</text>
</svg>
