<svg xmlns="http://www.w3.org/2000/svg" viewBox="0 0 760 700" role="img">
<defs><linearGradient id="bg" x1="0" x2="1" y1="0" y2="1"><stop stop-color="#0a2b25"/><stop offset="1" stop-color="#092019"/></linearGradient><linearGradient id="phone" x1="0" x2="1"><stop stop-color="#1d302c"/><stop offset="1" stop-color="#061713"/></linearGradient><linearGradient id="mint"><stop stop-color="#25e69b"/><stop offset="1" stop-color="#0abf83"/></linearGradient><filter id="shadow"><feDropShadow dx="0" dy="24" stdDeviation="24" flood-opacity=".24"/></filter></defs>
<rect x="38" y="35" width="684" height="625" rx="52" fill="url(#bg)"/>
<circle cx="565" cy="160" r="150" fill="#27e49b" opacity=".08"/><circle cx="150" cy="535" r="190" fill="#27e49b" opacity=".05"/>
<path d="M92 565 C160 490 205 470 278 480 C350 490 390 540 456 530" fill="none" stroke="#1fe398" stroke-width="2" opacity=".32" stroke-dasharray="8 10"/>
<g filter="url(#shadow)"><rect x="330" y="90" width="295" height="525" rx="42" fill="#081713" stroke="#5d7c73" stroke-width="5"/><rect x="350" y="132" width="255" height="435" rx="25" fill="#f4f6f2"/><rect x="350" y="132" width="255" height="62" rx="25" fill="#075e4d"/><circle cx="378" cy="163" r="17" fill="#d6f5e8"/><text x="405" y="158" font-family="Arial" font-size="15" font-weight="700" fill="white">Your Business</text><text x="405" y="178" font-family="Arial" font-size="9" fill="#b9e8d7">online on WhatsApp</text>
<rect x="365" y="215" width="190" height="63" rx="18" fill="white"/><text x="380" y="239" font-family="Arial" font-size="11" fill="#1b2825">Hi, is this product</text><text x="380" y="256" font-family="Arial" font-size="11" fill="#1b2825">available today?</text>
<rect x="407" y="295" width="183" height="76" rx="18" fill="#d9fdd3"/><text x="422" y="319" font-family="Arial" font-size="11" fill="#17231f">Yes! Here's the offer,</text><text x="422" y="336" font-family="Arial" font-size="11" fill="#17231f">details and enquiry link.</text><rect x="422" y="345" width="142" height="16" rx="8" fill="#b8e8b3"/>
<rect x="365" y="388" width="210" height="98" rx="16" fill="white" stroke="#e0e5e1"/><rect x="380" y="404" width="53" height="52" rx="9" fill="#d9e8df"/><circle cx="406" cy="430" r="16" fill="#ffffff" opacity=".8"/><text x="445" y="420" font-family="Arial" font-size="11" font-weight="700" fill="#1c2824">Hot deal</text><text x="445" y="439" font-family="Arial" font-size="9" fill="#66726d">View product →</text><text x="380" y="511" font-family="Arial" font-size="10" fill="#6c7772">Message...</text><circle cx="575" cy="540" r="18" fill="#12c98c"/></g>
<g filter="url(#shadow)"><rect x="70" y="110" width="210" height="105" rx="22" fill="#ffffff"/><circle cx="103" cy="145" r="18" fill="#e6faf2"/><path d="M96 145h15M103 138v15" stroke="#0bbb7f" stroke-width="3"/><text x="132" y="143" font-family="Arial" font-size="12" font-weight="700" fill="#17211e">New lead captured</text><text x="132" y="162" font-family="Arial" font-size="9" fill="#68736e">Customer ready to enquire</text><rect x="90" y="181" width="150" height="8" rx="4" fill="#eaf0ec"/><rect x="90" y="181" width="105" height="8" rx="4" fill="#17c98b"/></g>
<g filter="url(#shadow)"><rect x="72" y="270" width="190" height="95" rx="20" fill="#ffffff"/><circle cx="102" cy="302" r="18" fill="#f0f8f4"/><path d="M92 302l8 8 14-16" fill="none" stroke="#0bbb7f" stroke-width="3"/><text x="130" y="300" font-family="Arial" font-size="12" font-weight="700" fill="#17211e">Product viewed</text><text x="130" y="320" font-family="Arial" font-size="9" fill="#68736e">Offer + details shared</text><text x="92" y="347" font-family="Arial" font-size="9" fill="#0a9d69">WhatsApp → Website</text></g>
<g filter="url(#shadow)"><rect x="82" y="500" width="220" height="105" rx="22" fill="#ffffff"/><circle cx="114" cy="536" r="18" fill="#eefbf6"/><text x="104" y="543" font-family="Arial" font-size="20" fill="#0bbb7f">✦</text><text x="145" y="533" font-family="Arial" font-size="12" font-weight="700" fill="#17211e">AI follow-up ready</text><text x="145" y="553" font-family="Arial" font-size="9" fill="#68736e">Summarise • suggest • follow up</text><rect x="103" y="576" width="145" height="8" rx="4" fill="#eaf0ec"/><rect x="103" y="576" width="119" height="8" rx="4" fill="#17c98b"/></g>
<text x="83" y="420" font-family="Arial" font-size="31" font-weight="700" fill="white">Chat → Lead</text><text x="83" y="448" font-family="Arial" font-size="13" fill="#b9cbc5">A clearer path from interest</text><text x="83" y="467" font-family="Arial" font-size="13" fill="#b9cbc5">to business opportunity.</text>
</svg>
